<?xml version="1.0" encoding="UTF-8" standalone="no"?>
<!-- Created with Inkscape (http://www.inkscape.org/) -->

<svg
   width="640"
   height="730"
   viewBox="0 0 169.33334 193.14584"
   version="1.1"
   id="svg5"
   inkscape:version="1.2.1 (9c6d41e410, 2022-07-14)"
   sodipodi:docname="Logo2.svg"
   xmlns:inkscape="http://www.inkscape.org/namespaces/inkscape"
   xmlns:sodipodi="http://sodipodi.sourceforge.net/DTD/sodipodi-0.dtd"
   xmlns="http://www.w3.org/2000/svg"
   xmlns:svg="http://www.w3.org/2000/svg">
  <sodipodi:namedview
     id="namedview7"
     pagecolor="#ffffff"
     bordercolor="#999999"
     borderopacity="1"
     inkscape:showpageshadow="0"
     inkscape:pageopacity="0"
     inkscape:pagecheckerboard="0"
     inkscape:deskcolor="#d1d1d1"
     inkscape:document-units="px"
     showgrid="false"
     inkscape:zoom="0.17354522"
     inkscape:cx="800.94401"
     inkscape:cy="553.16996"
     inkscape:window-width="1366"
     inkscape:window-height="705"
     inkscape:window-x="-8"
     inkscape:window-y="-8"
     inkscape:window-maximized="1"
     inkscape:current-layer="layer1" />
  <defs
     id="defs2" />
  <g
     inkscape:label="Capa 1"
     inkscape:groupmode="layer"
     id="layer1">
    <path
       d="m 75.540693,453.1533 c 1.151143,-0.31686 2.435092,-0.0414 3.365468,0.83921 1.044702,0.98902 1.351706,2.46491 0.901794,3.73925 -1.247729,0.51865 -2.738153,0.2932 -3.782855,-0.69582 -0.930376,-0.8806 -1.275572,-2.14755 -1.022281,-3.31446 1.08558,0.8483 0.940779,0.30804 2.026493,1.15616 -0.90647,-1.03749 -0.582319,-0.6867 -1.488619,-1.72434 z"
       style="fill:#00ac5f;fill-opacity:1;fill-rule:nonzero;stroke:none;stroke-width:0.246392"
       id="path94-1"
       sodipodi:nodetypes="ccccccc"
       clip-path="none"
       transform="matrix(12.657807,0,0,-12.657807,-858.33127,5863.8672)" />
    <path
       d="m 75.66798,448.73655 c 1.037803,-0.59011 2.350087,-0.63889 3.46846,-0.014 1.255859,0.70172 1.91619,2.05663 1.793733,3.40267 -1.081907,0.8094 -2.581941,0.95748 -3.838047,0.25575 -1.118374,-0.62485 -1.764413,-1.76811 -1.805807,-2.96138 1.260805,0.55527 0.944077,0.19525 2.204964,0.75033 -1.133752,-0.78264 -0.689782,-0.65036 -1.823303,-1.43333 z"
       style="fill:#00ac5f;fill-opacity:1;fill-rule:nonzero;stroke:none;stroke-width:0.246392"
       id="path98-6"
       sodipodi:nodetypes="cscsccc"
       clip-path="none"
       transform="matrix(12.657807,0,0,-12.657807,-858.33127,5863.8672)" />
    <path
       d="m 73.384148,448.73655 c -1.037803,-0.59011 -2.350087,-0.63889 -3.468706,-0.014 -1.255613,0.70172 -1.915944,2.05663 -1.793487,3.40267 1.081907,0.8094 2.581941,0.95748 3.838047,0.25575 1.118374,-0.62485 1.764413,-1.76811 1.805807,-2.96138 -1.260805,0.55527 -0.596995,-0.0256 -1.857882,0.52946 1.133752,-0.78264 0.3427,-0.42949 1.476221,-1.21246 z"
       style="fill:#00ac5f;fill-opacity:1;fill-rule:nonzero;stroke:none;stroke-width:0.246392"
       id="path102-8"
       sodipodi:nodetypes="cccsccc"
       clip-path="none"
       transform="matrix(12.657807,0,0,-12.657807,-858.33127,5863.8672)" />
    <path
       d="m 74.119505,456.74348 c 0.106029,1.37355 0.243614,0.72772 0.349645,2.10127 0.154511,-1.36898 0.2777,-0.71856 0.432896,-2.08747 1.010207,0.63643 1.672755,1.77008 1.650087,3.05082 -0.02562,1.43844 -0.908201,2.66005 -2.15248,3.18782 -1.224568,-0.57138 -2.063287,-1.82379 -2.037908,-3.26223 0.02291,-1.28099 0.725378,-2.39025 1.75776,-2.99021"
       style="fill:#00ac5f;fill-opacity:1;fill-rule:nonzero;stroke:none;stroke-width:0.246392"
       id="path106-7-7"
       sodipodi:nodetypes="ccccccc"
       clip-path="none"
       transform="matrix(12.657807,0,0,-12.657807,-858.33127,5863.8672)" />
    <path
       d="m 73.856309,453.86229 c 0.253291,1.16691 -0.0919,2.43361 -1.022527,3.31446 -1.044702,0.98902 -2.535127,1.21447 -3.782855,0.69582 -0.449666,-1.27459 -0.142661,-2.75023 0.901794,-3.7395 0.930623,-0.8806 2.214571,-1.15582 3.365714,-0.83921 -0.906312,1.03771 -0.203568,0.65542 -1.109983,1.69304 1.08563,-0.84823 0.562104,-0.27653 1.647857,-1.12461 z"
       style="fill:#00ac5f;fill-opacity:1;fill-rule:nonzero;stroke:none;stroke-width:0.246392"
       id="path110-6-5"
       sodipodi:nodetypes="ccccccc"
       clip-path="none"
       transform="matrix(12.657807,0,0,-12.657807,-858.33127,5863.8672)" />
  </g>
</svg>
